# xmcd
#
# Track frame offsets: 
#        150
#        12285
#        22082
#        33087
#        45362
#        58285
#        69347
#        80627
#        93192
#        106345
#        118305
#        128992
#        139312
#        151705
#        164207
#        177802
#        187150
#        200637
#        212147
#
# Disc length: 2997 seconds
#
# Revision: 0
# Processed by: cddbd v1.5.2PL0 Copyright (c) Steve Scherf et al.
# Submitted via: ExactAudioCopy v1.0b1
#
DISCID=130bb313
DTITLE=Pee Wee King - Country Barn Dance and Biggest Hits
DYEAR=2004
DGENRE=Country
TTITLE0=Changing Partners
TTITLE1=I Can't Tell A Waltz From A Tango
TTITLE2=Last Night On The Back Porch (I Loved Her Best Of All)
TTITLE3=Silver And Gold
TTITLE4=Till I Waltz Again With You
TTITLE5=San Antonio Rose
TTITLE6=Over The Waves
TTITLE7=Backward, Turn Backward
TTITLE8=Waltz Of The Alamo
TTITLE9=A Mighty Pretty Waltz
TTITLE10=My Adobe Hacienda
TTITLE11=The One Rose (That's Left In My Heart)
TTITLE12=Steel Guitar Rag
TTITLE13=Bonaparte's Retreat
TTITLE14=Slow Poke
TTITLE15=Blue Suede Shoes
TTITLE16=Tennessee Waltz
TTITLE17=Varsoviana
TTITLE18=Rag Mop
EXTD=
EXTT0=
EXTT1=
EXTT2=
EXTT3=
EXTT4=
EXTT5=
EXTT6=
EXTT7=
EXTT8=
EXTT9=
EXTT10=
EXTT11=
EXTT12=
EXTT13=
EXTT14=
EXTT15=
EXTT16=
EXTT17=
EXTT18=
PLAYORDER=
